# xmcd
#
# Track frame offsets: 
#        150
#        11229
#        24528
#        35885
#        47144
#        58883
#        72865
#        82984
#        95397
#        107879
#        121148
#        132805
#        144828
#        156814
#        168020
#        179865
#        192278
#        204473
#        217015
#        229032
#
# Disc length: 3217 seconds
#
# Revision: 14
# Processed by: cddbd v1.5.2PL0 Copyright (c) Steve Scherf et al.
# Submitted via: ExactAudioCopyFreeDBPlugin 1.0
#
DISCID=1d0c8f14
DTITLE=Hank Williams - 40 Greatest Hits [CD2]
DYEAR=1953
DGENRE=Country
TTITLE0=I Can't Help It (If I'm Still In Love With You)
TTITLE1=Hey, Good Lookin'
TTITLE2=Crazy Heart
TTITLE3=(I Heard That) Lonesome Whistle
TTITLE4=Baby, We're Really In Love
TTITLE5=Ramblin' Man
TTITLE6=Honky Tonk Blues
TTITLE7=I'm Sorry For You My Friend
TTITLE8=Half As Much
TTITLE9=Jambalaya (On The Bayou)
TTITLE10=Window Shopping
TTITLE11=Settin' The Woods On Fire
TTITLE12=You Win Again
TTITLE13=I'll Never Get Out Of This World Alive
TTITLE14=Kaw-Liga
TTITLE15=Your Cheatin' Heart
TTITLE16=Take These Chains From My Heart
TTITLE17=I Won't Be Home No More
TTITLE18=Weary Blues From Waitin'
TTITLE19=I Saw The Light
EXTD=
EXTT0=
EXTT1=
EXTT2=
EXTT3=
EXTT4=
EXTT5=
EXTT6=
EXTT7=
EXTT8=
EXTT9=
EXTT10=
EXTT11=
EXTT12=
EXTT13=
EXTT14=
EXTT15=
EXTT16=
EXTT17=
EXTT18=
EXTT19=
PLAYORDER=
